# xmcd
# 
# Track frame offsets:
#     150
#     23923
#     44365
#     66246
#     86750
#     105106
#     124578
#     145480
#     169190
#     187824
#     204098
#     221852
# 
# Disc length: 3182
# 
# Revision: 0
# Processed by: cddbd v1.5.2PL0 Copyright (c) Steve Scherf et al.
# Submitted via: fre:ac v1.0.31
# 
DISCID=a40c6c0c
DTITLE=Various Artist - Blues Mix Vol. 10 Super Soul Music
DYEAR=2013
DGENRE=Blues
TTITLE0=O. B. Buchana, Sir Charles Jones - Can't Get You off of My Mind
TTITLE1=Mr. Sam - Just Like Dat (remix)
TTITLE2=Sheba Potts-Wright - I've Done All I Can Do (remix)
TTITLE3=Sir Ced - Stop It
TTITLE4=Ms. Jody - You Didn't Appreciate What You Had When You Had It
TTITLE5=Mr. Sam - All I Need
TTITLE6=Jaye Hammer - One Stop Lover
TTITLE7=O. B. Buchana, Ann Hines - You're Just Playin' With It (remix)
TTITLE8=Sonny Mack - Sit Her On The Table
TTITLE9=David Brinston - Joy
TTITLE10=Lee Shot Williams - Who's Knockin The Boots
TTITLE11=Denise LaSalle - Pay Before You Pump (remix)
EXTD=
EXTT0=
EXTT1=
EXTT2=
EXTT3=
EXTT4=
EXTT5=
EXTT6=
EXTT7=
EXTT8=
EXTT9=
EXTT10=
EXTT11=
PLAYORDER=
